<?xml version="1.0" standalone="no"?>
<!DOCTYPE svg PUBLIC "-//W3C//DTD SVG 20010904//EN"
 "http://www.w3.org/TR/2001/REC-SVG-20010904/DTD/svg10.dtd">
<svg version="1.0" xmlns="http://www.w3.org/2000/svg"
 width="612.000000pt" height="612.000000pt" viewBox="0 0 612.000000 612.000000"
 preserveAspectRatio="xMidYMid meet">

<g transform="translate(0.000000,612.000000) scale(0.100000,-0.100000)"
fill="#000000" stroke="none">
<path d="M3525 5235 c-22 -8 -242 -75 -490 -150 -247 -74 -463 -145 -481 -157
-17 -12 -42 -37 -55 -56 -23 -34 -24 -42 -27 -251 l-3 -216 252 -510 c138
-280 253 -511 254 -513 1 -1 284 82 629 185 474 142 626 192 626 203 0 9 -6
24 -13 35 -8 11 -125 239 -260 507 l-247 486 0 192 c0 244 -7 261 -103 259
-23 0 -60 -7 -82 -14z m-40 -900 c185 -88 258 -342 144 -499 -100 -138 -311
-141 -434 -4 -62 68 -88 132 -93 231 -4 82 -3 91 27 151 49 101 121 145 234
146 53 0 80 -6 122 -25z"/>
<path d="M2329 4298 c-20 -24 -85 -101 -145 -173 -61 -71 -151 -179 -202 -240
-51 -60 -92 -112 -92 -116 0 -7 940 -383 944 -378 4 5 -461 949 -466 949 -2 0
-20 -19 -39 -42z"/>
<path d="M1872 2523 l3 -1118 23 -56 c30 -75 90 -141 166 -184 34 -19 134 -63
222 -98 155 -63 528 -197 545 -197 5 0 9 534 9 1194 l0 1194 -478 191 c-262
105 -481 191 -485 191 -4 0 -6 -503 -5 -1117z m347 592 c56 -74 103 -135 106
-135 2 0 64 23 137 50 73 28 138 50 145 50 9 0 13 -19 13 -64 l0 -64 -109 -38
c-121 -42 -120 -41 -64 -101 18 -19 53 -38 96 -52 38 -13 71 -29 73 -36 3 -7
4 -33 2 -58 l-3 -45 -255 93 -255 93 -3 56 c-2 31 -1 56 1 56 5 0 60 -20 150
-54 37 -14 67 -22 67 -18 0 4 -49 69 -109 146 -108 138 -108 138 -110 197 -1
32 2 59 7 59 5 0 55 -61 111 -135z m364 -566 l37 -13 0 -184 0 -183 -22 6
c-13 4 -129 46 -258 94 l-235 86 -1 53 c-1 28 3 52 8 52 4 0 96 -31 202 -70
107 -38 197 -70 201 -70 3 0 5 6 4 13 -1 6 -1 63 0 126 1 86 4 112 14 108 6
-2 29 -10 50 -18z m-215 -420 l252 -92 0 -53 c0 -30 -3 -54 -7 -54 -14 0 -488
173 -500 183 -14 10 -18 107 -5 107 4 0 121 -41 260 -91z m-1 -241 l253 -92 0
-53 c0 -29 -4 -53 -8 -53 -4 0 -68 22 -142 49 -74 27 -146 52 -160 56 -17 5 8
-26 84 -104 74 -74 105 -112 95 -115 -8 -2 -57 -17 -108 -33 l-95 -28 165 -60
164 -60 3 -53 c2 -33 -1 -52 -8 -52 -9 0 -395 138 -492 175 -14 6 -18 19 -18
66 l0 58 38 10 c20 5 67 18 105 27 37 10 67 21 67 24 0 3 -47 52 -105 110
l-105 105 0 57 c0 32 3 58 7 58 4 0 121 -41 260 -92z"/>
<path d="M4130 3599 c-52 -16 -331 -100 -620 -187 l-525 -158 -3 -1192 c-1
-656 1 -1192 5 -1192 7 0 220 66 433 135 74 24 230 73 345 110 228 73 297 104
362 160 51 44 100 138 113 220 16 96 13 2135 -2 2134 -7 -1 -56 -14 -108 -30z
m-100 -1214 c0 -661 -1 -705 -17 -713 -10 -5 -187 -62 -393 -127 -206 -65
-381 -120 -387 -122 -10 -4 -13 143 -13 713 l0 719 388 117 c213 64 395 117
405 117 16 1 17 -39 17 -704z"/>
</g>
</svg>
